<svg width="23" height="22" viewBox="0 0 23 22" fill="none" xmlns="http://www.w3.org/2000/svg">
<g clip-path="url(#clip0_4349_165)">
<path d="M19.9548 0.585861C19.9548 2.15397 19.3283 3.65785 18.2132 4.76667C17.0981 5.87549 15.5857 6.49841 14.0086 6.49841C12.4316 6.49841 10.9192 5.87549 9.80408 4.76667C8.68896 3.65785 8.0625 2.15397 8.0625 0.585862L14.0086 0.585861H19.9548Z" fill="#8D3CFF"/>
<path d="M14.0427 21.4142C14.0427 19.8461 13.4162 18.3422 12.3011 17.2334C11.186 16.1245 9.67358 15.5016 8.09654 15.5016C6.51952 15.5016 5.00709 16.1245 3.89198 17.2334C2.77686 18.3422 2.15039 19.8461 2.15039 21.4142H8.09654H14.0427Z" fill="#8D3CFF"/>
<path d="M11.0669 10.8849C9.70889 11.6689 8.09328 11.8784 6.57543 11.467C5.05761 11.0557 3.76192 10.0574 2.97341 8.69163C2.18491 7.3259 1.96817 5.70465 2.37087 4.18452C2.77358 2.66439 3.76274 1.36991 5.12076 0.585861L8.09382 5.73538L11.0669 10.8849Z" fill="#002F89"/>
<path d="M11.0859 10.8656C12.4439 10.0816 14.0595 9.87219 15.5774 10.2835C17.0952 10.6948 18.3909 11.6931 19.1794 13.0589C19.9679 14.4246 20.1847 16.0459 19.782 17.566C19.3792 19.0862 18.3901 20.3806 17.0321 21.1647L14.059 16.0151L11.0859 10.8656Z" fill="#002F89"/>
</g>
<defs>
<clipPath id="clip0_4349_165">
<rect width="22.1721" height="20.8283" fill="white" transform="translate(0 0.585846)"/>
</clipPath>
</defs>
</svg>
