<svg width="188" height="54" viewBox="0 0 188 54" fill="none" xmlns="http://www.w3.org/2000/svg">
<path d="M89.3613 53.565C92.3937 54.0704 96.3704 54.0032 100.146 53.4302C101.899 53.1604 104.261 52.9244 105.341 52.9244C106.452 52.9244 108.272 52.6884 109.383 52.3853C112.839 51.5085 114.381 51.1291 115.451 50.7838C116.52 50.4386 117.117 50.1272 118.686 49.3853C122.662 47.5318 125.324 45.4768 127.548 42.5123C130.485 38.6275 131.735 34.8611 132.046 28.6285L132.096 27.3482C132.264 20.4391 130.916 15.5206 127.581 11.1412C126.806 10.1303 125.728 8.88385 125.223 8.37848C124.533 7.73891 123.143 6.74513 121.845 5.91071C121.196 5.49358 120.571 5.11596 120.067 4.84332C119.816 4.70702 119.595 4.59702 119.417 4.52106C119.328 4.48318 119.251 4.45394 119.186 4.43414C119.12 4.41424 119.068 4.40388 119.03 4.40387C118.876 4.40387 118.696 4.36092 118.526 4.28864C118.356 4.21635 118.194 4.11449 118.074 3.99469C117.983 3.9038 117.833 3.80385 117.628 3.69586C117.423 3.58802 117.164 3.47213 116.855 3.35114C116.238 3.10906 115.423 2.84408 114.452 2.56598C112.753 2.07937 110.572 1.55411 108.123 1.04645L107.057 0.829651C105.507 0.526575 101.219 0.298973 96.7637 0.197815C92.587 0.102981 88.2664 0.119601 85.9238 0.288635L85.4824 0.323792C81.6731 0.728338 76.8869 1.63873 74.5957 2.41364C73.5507 2.78444 72.3697 3.18923 71.998 3.29059C71.8139 3.3408 71.385 3.50955 70.8369 3.74567C70.2893 3.98155 69.6239 4.28492 68.9668 4.60504C62.4642 7.7384 58.4881 12.8586 56.8369 20.2379C56.3991 22.1914 56.2978 23.8423 56.4326 27.6519C56.6012 33.1128 57.1067 35.5719 58.6562 38.772C59.4486 40.4073 59.9118 41.3252 60.4209 42.0826C60.9299 42.8398 61.486 43.4375 62.4639 44.4322C66.1022 48.1716 70.0435 50.1267 78.2354 52.2505C79.0769 52.4525 81.436 52.7558 83.459 52.9244C85.5158 53.093 88.1467 53.3626 89.3613 53.565ZM104.702 39.8414C94.6868 41.0554 88.076 40.9204 80.7568 39.2339C79.3739 38.9304 78.3942 38.6358 77.541 38.2134C76.6877 37.791 75.9612 37.242 75.084 36.4322C72.4816 34.0664 71.3702 29.2033 72.1123 23.8736C72.3653 22.0693 72.6856 20.7611 73.1797 19.6968C73.6122 18.7652 74.1774 18.0211 74.9453 17.2955L75.2871 16.9849C77.9885 14.6887 80.589 13.8789 86.3223 13.4742C90.0995 13.2044 101.295 13.3053 104.702 13.6763C107.014 13.8957 109.233 14.5879 111.06 15.5836C112.886 16.5792 114.323 17.88 115.066 19.317C115.945 21.0065 116.391 23.8421 116.408 26.6793C116.425 29.5165 116.013 32.3607 115.168 34.067C113.478 37.3784 110.234 39.1667 104.702 39.8414Z" fill="#C4F500" stroke="#C4F500" stroke-width="0.0337179"/>
<path d="M46.0439 52.8983C50.6905 52.9067 55.2854 52.8925 58.7334 52.8524C60.4572 52.8324 61.8947 52.8062 62.9082 52.7733C63.415 52.7569 63.8162 52.7384 64.0938 52.7186C64.2325 52.7087 64.3404 52.699 64.415 52.6884C64.4524 52.683 64.481 52.6771 64.501 52.6718C64.511 52.6691 64.5185 52.6662 64.5234 52.6639C64.5287 52.6615 64.5291 52.6607 64.5283 52.662C64.536 52.6495 64.539 52.6323 64.5361 52.6093C64.5332 52.5859 64.5248 52.5576 64.5098 52.5253C64.4797 52.4607 64.426 52.3819 64.3555 52.2938C64.2146 52.1179 64.0055 51.9078 63.7764 51.7059C63.5472 51.5041 63.298 51.3105 63.0771 51.1678C62.9669 51.0966 62.8642 51.0375 62.7744 50.9969C62.684 50.9561 62.6081 50.9344 62.5527 50.9344C62.5432 50.9344 62.5311 50.9313 62.5186 50.9266C62.5054 50.9217 62.4891 50.9142 62.4707 50.9052C62.4337 50.8868 62.3855 50.8603 62.3281 50.826C62.213 50.7574 62.0591 50.6582 61.8779 50.536C61.5153 50.2914 61.0427 49.9538 60.5537 49.5829C58.1914 47.7943 55.6951 44.8583 54.1768 42.1591H54.1758L52.9658 39.9764L40.2314 39.7743C34.3984 39.69 31.1692 39.6303 29.1836 39.5165C27.198 39.4026 26.4544 39.2346 25.5928 38.9305V38.9296C20.5986 37.1411 17.6937 34.3059 16.5117 30.1522C16.107 28.7359 15.8961 27.7642 15.875 26.8768C15.8539 25.9892 16.0227 25.186 16.377 24.1063C17.5581 20.5292 19.1455 18.402 21.9141 16.6464C23.7196 15.4989 25.0706 14.865 27.6992 14.4979C30.3263 14.1311 34.2303 14.0305 41.1416 13.9462C44.3279 13.9124 47.2533 13.8537 49.3984 13.7821C50.4708 13.7463 51.3481 13.7064 51.9658 13.6659C52.2747 13.6456 52.5189 13.6252 52.6895 13.6044C52.7747 13.594 52.8415 13.5835 52.8887 13.5731C52.912 13.568 52.9302 13.5633 52.9434 13.5585C52.9499 13.556 52.9554 13.5537 52.959 13.5516L52.9639 13.5477L52.9648 13.5468C52.997 13.5146 53.0535 13.4359 53.1279 13.3202C53.202 13.2051 53.2933 13.0545 53.3965 12.8798C53.6028 12.5303 53.8557 12.0837 54.1084 11.6288C54.6145 10.6841 55.4249 9.40198 55.8975 8.76062C56.5221 7.93345 57.7957 6.58359 58.9717 5.44128C59.5597 4.87012 60.1237 4.35052 60.5703 3.97351C60.7935 3.78507 60.9873 3.63128 61.1406 3.52527C61.2172 3.47231 61.2845 3.43149 61.3398 3.4032C61.3942 3.37539 61.4398 3.35841 61.4736 3.35828C61.5001 3.35828 61.5373 3.34971 61.584 3.33191C61.6303 3.31423 61.6849 3.28776 61.7471 3.25378C61.8716 3.18578 62.0249 3.08761 62.1973 2.9657C62.5422 2.72172 62.9637 2.38505 63.3848 2.01453V2.01355L64.8682 0.72937L47.5488 0.762573C36.2192 0.762573 28.9031 0.930456 26.4766 1.20007C21.4545 1.73935 18.6916 2.51494 14.5127 4.53699H14.5117C7.23349 8.00775 2.1798 14.4441 0.629883 22.0927C0.377516 23.3043 0.335437 25.4858 0.449219 27.6434C0.563019 29.8011 0.832073 31.9316 1.20215 33.0419C2.34819 36.48 4.13442 39.8497 5.7168 41.5331C6.00352 41.8367 6.26514 42.1402 6.45508 42.3807C6.55006 42.501 6.62806 42.6062 6.68164 42.6874C6.70826 42.7277 6.72878 42.7628 6.74316 42.7909C6.75038 42.805 6.75681 42.8179 6.76074 42.829C6.76451 42.8397 6.7666 42.8502 6.7666 42.8593C6.76662 42.8682 6.77048 42.8818 6.7793 42.9003C6.78799 42.9184 6.80079 42.9406 6.81836 42.9657C6.85364 43.016 6.90617 43.0786 6.97363 43.1522C7.10888 43.2999 7.3045 43.4901 7.54395 43.7098C8.02303 44.1494 8.67812 44.7072 9.38184 45.2782C10.7896 46.4204 12.3901 47.6163 13.1641 48.037C17.0405 50.1606 19.7369 51.2048 23.2754 51.9462C24.1181 52.1147 25.4663 52.3854 26.3096 52.5878C26.4263 52.6107 26.6767 52.6324 27.0449 52.6532C27.413 52.674 27.8982 52.6935 28.4824 52.7118C29.6508 52.7484 31.2169 52.7792 33.0439 52.8055C36.6986 52.8582 41.3972 52.8899 46.0439 52.8983Z" fill="#C4F500" stroke="#C4F500" stroke-width="0.0337179"/>
<path d="M167.747 2.38049C165.895 1.72377 163.553 1.30162 159.444 1.04456C155.336 0.787494 149.46 0.694946 140.542 0.694946C135.67 0.694947 131.556 0.729026 128.661 0.783813C127.213 0.811208 126.07 0.843176 125.289 0.879517C124.899 0.897686 124.599 0.917358 124.396 0.937134C124.296 0.94702 124.22 0.957338 124.169 0.967407C124.143 0.972474 124.125 0.977443 124.113 0.982056C124.109 0.983936 124.106 0.985844 124.104 0.986938C124.106 1.00772 124.114 1.03493 124.131 1.06799C124.149 1.10356 124.176 1.14499 124.21 1.19104C124.278 1.28315 124.378 1.39303 124.498 1.51428C124.739 1.75704 125.066 2.04337 125.409 2.31702C125.752 2.59066 126.111 2.85216 126.415 3.04456C126.567 3.14077 126.706 3.21927 126.822 3.27405C126.939 3.32909 127.03 3.35901 127.089 3.35901C127.127 3.35905 127.179 3.37843 127.241 3.41174C127.304 3.44549 127.38 3.49515 127.467 3.55823C127.641 3.68455 127.862 3.86621 128.113 4.08948C128.617 4.53607 129.248 5.14916 129.896 5.81311C131.189 7.14059 132.548 8.67585 133.071 9.50354C133.577 10.2795 134.319 11.5604 134.724 12.3024L135.461 13.6442L147.893 13.8453C151.315 13.8959 154.578 13.9798 157.077 14.0768C158.327 14.1253 159.387 14.177 160.18 14.2291C160.576 14.2552 160.906 14.2812 161.16 14.3073C161.287 14.3202 161.395 14.3334 161.483 14.3463L161.688 14.3854C164.59 15.0942 167.426 16.7479 169.384 18.8746C169.907 19.4482 170.413 20.0644 170.801 20.6002C170.995 20.868 171.16 21.1158 171.282 21.3287C171.405 21.5413 171.486 21.7209 171.512 21.8502C171.587 22.2288 171.777 22.9295 171.98 23.5973L172.186 24.2418C172.489 25.2029 172.641 25.8457 172.633 26.527C172.624 27.2081 172.455 27.927 172.118 29.0397C171.342 31.7057 170.144 33.8078 168.435 35.4371C166.725 37.0664 164.505 38.2216 161.688 38.9977C161.045 39.1668 159.922 39.2851 157.87 39.361C155.817 39.4368 152.832 39.4703 148.466 39.4703C145.296 39.4703 142.321 39.5044 140.083 39.5592C138.964 39.5866 138.03 39.6195 137.348 39.6559C137.007 39.6741 136.729 39.6927 136.522 39.7125C136.42 39.7224 136.334 39.7326 136.269 39.7428C136.202 39.753 136.156 39.7633 136.131 39.7731C135.916 39.856 135.64 40.0813 135.375 40.3756C135.11 40.6696 134.858 41.0311 134.69 41.3834L134.456 41.8248C133.283 43.9948 132.073 45.6205 130.271 47.4235C129.343 48.3345 128.094 49.3638 126.918 50.2281C125.742 51.0921 124.636 51.7927 123.993 52.0465C123.867 52.0949 123.759 52.141 123.674 52.1842C123.589 52.2273 123.526 52.2672 123.486 52.3043C123.446 52.342 123.434 52.3736 123.44 52.399C123.447 52.4257 123.476 52.4551 123.537 52.485C123.66 52.5444 123.896 52.5974 124.267 52.6432C124.637 52.6888 125.138 52.7268 125.791 52.7594C128.404 52.89 133.428 52.9244 142.06 52.9244C161.077 52.9244 162.592 52.8228 167.917 51.3737C169.045 51.0705 170.722 50.4557 172.21 49.8405C172.954 49.5329 173.65 49.2251 174.206 48.9567C174.624 48.755 174.962 48.5756 175.183 48.4352L175.362 48.3082C175.498 48.1897 175.659 48.0801 175.803 47.9996C175.875 47.9594 175.943 47.926 176.002 47.903C176.06 47.8801 176.111 47.8668 176.148 47.8668C176.181 47.8668 176.226 47.8566 176.282 47.8356C176.338 47.8147 176.404 47.7833 176.479 47.7428C176.63 47.6616 176.818 47.5434 177.033 47.3942C177.463 47.0959 178.003 46.6755 178.586 46.1891C179.607 45.3375 180.761 44.2823 181.688 43.3209L182.07 42.9156C184.361 40.4563 185.877 37.7941 187.124 34.0533C187.629 32.5892 187.907 30.0707 187.945 27.5465C187.983 25.0225 187.781 22.4962 187.326 21.0153C185.304 14.377 181.194 9.15424 175.061 5.48108V5.4801C174.572 5.17694 174.083 4.90805 173.684 4.71448C173.484 4.61769 173.306 4.53944 173.162 4.48596C173.017 4.43222 172.908 4.40393 172.844 4.40393C172.722 4.40386 172.558 4.35211 172.401 4.26721C172.244 4.18211 172.09 4.06264 171.987 3.92542C171.889 3.79395 171.69 3.66002 171.45 3.54651C171.211 3.4333 170.934 3.34094 170.683 3.29065C170.175 3.18918 168.86 2.78506 167.747 2.38049Z" fill="#C4F500" stroke="#C4F500" stroke-width="0.0337179"/>
</svg>
