<svg width="61" height="61" viewBox="0 0 61 61" fill="none" xmlns="http://www.w3.org/2000/svg">
<g clip-path="url(#clip0_4058_241)">
<g clip-path="url(#clip1_4058_241)">
<path d="M48.3125 16.811H12.6875C9.5857 16.811 7.0625 19.3341 7.0625 22.436V27.1235C7.0625 30.2253 9.5857 32.7485 12.6875 32.7485V30.8735C10.6193 30.8735 8.9375 29.1916 8.9375 27.1235V22.436C8.9375 20.3678 10.6193 18.686 12.6875 18.686H48.3125C50.3807 18.686 52.0625 20.3678 52.0625 22.436V27.1235C52.0625 29.1916 50.3807 30.8735 48.3125 30.8735V32.7485C51.4143 32.7485 53.9375 30.2253 53.9375 27.1235V22.436C53.9375 19.3341 51.4143 16.811 48.3125 16.811Z" fill="#196164"/>
<path d="M53 4.62354H8C4.8982 4.62354 2.375 7.14674 2.375 10.2486V40.2486C2.375 43.3504 4.8982 45.8736 8 45.8736H13.4029C13.1345 45.2829 12.9371 44.6551 12.8195 43.9986H8C5.93183 43.9986 4.25 42.3167 4.25 40.2486V12.1236H56.75V40.2486C56.75 42.3167 55.0682 43.9986 53 43.9986H48.1805C48.0629 44.6551 47.8655 45.2829 47.5971 45.8736H53C56.1018 45.8736 58.625 43.3504 58.625 40.2486V10.2486C58.625 7.14674 56.1018 4.62354 53 4.62354ZM7.0625 10.2486C5.83099 10.2247 5.83117 8.39723 7.06254 8.37354C8.29401 8.39741 8.29383 10.2249 7.0625 10.2486ZM10.8125 10.2486C9.58099 10.2247 9.58117 8.39723 10.8125 8.37354C12.044 8.39741 12.0438 10.2249 10.8125 10.2486ZM14.5625 10.2486C13.331 10.2247 13.3312 8.39723 14.5625 8.37354C15.794 8.39741 15.7938 10.2249 14.5625 10.2486Z" fill="#196164"/>
<path d="M40.3438 24.311H20.6562C17.2963 24.311 14.5625 27.0447 14.5625 30.4047V42.5922C14.5625 45.9522 17.2963 48.686 20.6562 48.686H40.3438C43.7037 48.686 46.4375 45.9522 46.4375 42.5922V30.4047C46.4375 27.0447 43.7037 24.311 40.3438 24.311ZM34.6254 31.6233C33.6471 30.8862 34.7671 29.3911 35.7497 30.1237L39.4996 32.9361C39.9942 33.2866 39.9949 34.0853 39.4996 34.4358L35.7496 37.2483C35.5812 37.3746 35.3843 37.436 35.1884 37.436C34.3247 37.4681 33.8993 36.2527 34.6254 35.7486L37.3747 33.686L34.6254 31.6233ZM33.2457 29.3463L29.4957 38.7214C29.015 39.8597 27.3164 39.1744 27.7544 38.0255L31.5043 28.6505C31.9806 27.5159 33.6842 28.1931 33.2457 29.3463ZM26.3746 35.7486C27.3539 36.487 26.2309 37.9811 25.2503 37.2482L21.5004 34.4358C21.0058 34.0854 21.0051 33.2865 21.5004 32.9361L25.2504 30.1236C26.2315 29.3927 27.3545 30.8832 26.3746 31.6233L23.6253 33.6859L26.3746 35.7486Z" fill="#196164"/>
<path d="M44.3956 51.1047L42.4071 49.1153L44.1173 47.4051C45.6419 45.9803 44.9155 43.2024 42.8867 42.7085L31.006 39.3814C29.6548 38.9593 28.2706 40.3382 28.6953 41.6923L32.0223 53.573C32.517 55.6002 35.2935 56.3298 36.7189 54.8034L38.4291 53.0933L40.4186 55.0818C40.7839 55.4471 41.2645 55.6302 41.7442 55.6302C42.7559 55.7374 43.735 54.349 44.3956 53.7561C45.1271 53.0255 45.1271 51.8353 44.3956 51.1047Z" fill="#C4F500"/>
</g>
</g>
<defs>
<clipPath id="clip0_4058_241">
<rect width="60" height="60" fill="white" transform="translate(0.5 0.129883)"/>
</clipPath>
<clipPath id="clip1_4058_241">
<rect width="60" height="60" fill="white" transform="translate(0.5 0.129883)"/>
</clipPath>
</defs>
</svg>
