<svg width="61" height="61" viewBox="0 0 61 61" fill="none" xmlns="http://www.w3.org/2000/svg">
<g clip-path="url(#clip0_4058_216)">
<g clip-path="url(#clip1_4058_216)">
<path d="M53 5.75488H8C4.8982 5.75488 2.375 8.27808 2.375 11.3799V38.5674C2.375 41.6692 4.8982 44.1924 8 44.1924H25.8125V47.0049H23.9375C21.8693 47.0049 20.1875 48.6867 20.1875 50.7549C20.1875 52.8231 21.8693 54.5049 23.9375 54.5049H37.0625C39.1307 54.5049 40.8125 52.8231 40.8125 50.7549C40.8125 48.6867 39.1307 47.0049 37.0625 47.0049H35.1875V44.1924H53C56.1018 44.1924 58.625 41.6692 58.625 38.5674V11.3799C58.625 8.27808 56.1018 5.75488 53 5.75488ZM8 7.62988H53C55.0682 7.62988 56.75 9.31171 56.75 11.3799V36.6657C55.8953 37.8135 54.54 38.5674 53 38.5674H8C6.45997 38.5674 5.1047 37.8135 4.25 36.6657V11.3799C4.25 9.31171 5.93183 7.62988 8 7.62988ZM37.0625 48.8799C39.5304 48.9433 39.5381 52.5643 37.0624 52.6299H23.9375C21.4685 52.566 21.4629 48.9453 23.9376 48.8799H26.2098C27.7742 52.5932 33.227 52.5913 34.7902 48.8799H37.0625Z" fill="#196164"/>
<path d="M26.75 20.7549H23C21.4467 20.7549 20.1875 22.0141 20.1875 23.5674V33.8799C20.1875 35.4332 21.4467 36.6924 23 36.6924H26.75C28.3033 36.6924 29.5625 35.4332 29.5625 33.8799V23.5674C29.5625 22.0141 28.3033 20.7549 26.75 20.7549Z" fill="#196164"/>
<path d="M15.5 26.3799H11.75C10.1967 26.3799 8.9375 27.6391 8.9375 29.1924V33.8799C8.9375 35.4332 10.1967 36.6924 11.75 36.6924H15.5C17.0533 36.6924 18.3125 35.4332 18.3125 33.8799V29.1924C18.3125 27.6391 17.0533 26.3799 15.5 26.3799Z" fill="#196164"/>
<path d="M49.25 16.0674H45.5C43.9467 16.0674 42.6875 17.3266 42.6875 18.8799V33.8799C42.6875 35.4332 43.9467 36.6924 45.5 36.6924H49.25C50.8033 36.6924 52.0625 35.4332 52.0625 33.8799V18.8799C52.0625 17.3266 50.8033 16.0674 49.25 16.0674Z" fill="#196164"/>
<path d="M34.2499 36.6924H37.9999C41.7074 36.5956 41.7087 31.1643 37.9998 31.0674H34.2499C30.5423 31.1642 30.5411 36.5955 34.2499 36.6924Z" fill="#196164"/>
<path d="M48.9749 11.6546L47.0999 9.77964C46.2294 8.91647 44.9109 10.235 45.7743 11.1054L46.0489 11.38H43.6245C41.04 11.38 38.937 13.4829 38.937 16.0675V23.5675C38.8375 27.2758 33.4106 27.2766 33.312 23.5674V20.755C33.312 18.1704 31.2091 16.0675 28.6245 16.0675H19.2495C16.665 16.0675 14.562 18.1704 14.562 20.755C14.562 21.2723 14.1418 21.6925 13.6245 21.6925H9.87456C8.65313 21.7085 8.63364 23.547 9.8746 23.5675H13.6245C15.1755 23.5675 16.437 22.3059 16.437 20.755C16.437 19.2041 17.6986 17.9425 19.2495 17.9425H28.6245C30.1755 17.9425 31.437 19.2041 31.437 20.755V23.5675C31.6548 29.7682 40.5927 29.7721 40.812 23.5674V16.0675C40.812 14.5166 42.0736 13.255 43.6245 13.255H46.0489L45.7742 13.5296C44.9112 14.4 46.2293 15.7187 47.0999 14.8553L48.9749 12.9803C49.3411 12.6141 49.3411 12.0208 48.9749 11.6546Z" fill="#C4F500"/>
</g>
</g>
<defs>
<clipPath id="clip0_4058_216">
<rect width="60" height="60" fill="white" transform="translate(0.5 0.129883)"/>
</clipPath>
<clipPath id="clip1_4058_216">
<rect width="60" height="60" fill="white" transform="translate(0.5 0.129883)"/>
</clipPath>
</defs>
</svg>
