<svg width="60" height="61" viewBox="0 0 60 61" fill="none" xmlns="http://www.w3.org/2000/svg">
<g clip-path="url(#clip0_4058_229)">
<g clip-path="url(#clip1_4058_229)">
<path d="M49.4211 40.4424C46.6106 40.2771 44.3899 39.041 43.4564 36.6924H27.1875C24.0857 36.6924 21.5625 34.1692 21.5625 31.0674V13.2549C21.5625 10.1531 24.0857 7.62988 27.1875 7.62988H52.5C55.6018 7.62988 58.125 10.1531 58.125 13.2549V31.0674C58.125 34.1692 55.6018 36.6924 52.5 36.6924H49.368C49.2508 37.4935 49.5007 38.2763 50.0739 38.832C50.6803 39.3813 50.2371 40.4704 49.4211 40.4424ZM27.1875 9.50488C25.1193 9.50488 23.4375 11.1867 23.4375 13.2549V31.0674C23.4375 33.1356 25.1193 34.8174 27.1875 34.8174H44.1559C44.5981 34.8174 44.9808 35.1269 45.0723 35.559C45.3567 36.859 46.3094 37.7158 47.6038 38.1975C47.3762 37.2973 47.2734 34.9015 48.6492 34.8174H52.5C54.5682 34.8174 56.25 33.1356 56.25 31.0674V13.2549C56.25 11.1867 54.5682 9.50488 52.5 9.50488H27.1875Z" fill="#196164"/>
<path d="M49.6875 15.1299H44.0625C41.9914 15.1299 40.3125 16.8088 40.3125 18.8799V24.5049C40.3125 26.576 41.9914 28.2549 44.0625 28.2549H49.6875C51.7586 28.2549 53.4375 26.576 53.4375 24.5049V18.8799C53.4375 16.8088 51.7586 15.1299 49.6875 15.1299Z" fill="#196164"/>
<path d="M32.8125 19.8174H7.5C4.3982 19.8174 1.875 22.3406 1.875 25.4424V43.2549C1.875 46.3567 4.3982 48.8799 7.5 48.8799H10.632C10.7492 49.681 10.4993 50.4638 9.92615 51.0195C9.64508 51.2923 9.56268 51.7107 9.72015 52.0696C9.87681 52.4278 10.2446 52.652 10.6329 52.6281C13.4337 52.4411 15.6106 51.2151 16.5436 48.8799H32.8125C35.9143 48.8799 38.4375 46.3567 38.4375 43.2549V25.4424C38.4375 22.3406 35.9143 19.8174 32.8125 19.8174ZM13.125 40.4424C9.50683 40.4424 6.5625 37.4981 6.5625 33.8799C6.89295 25.1859 19.3584 25.1883 19.6875 33.88C19.6875 37.4981 16.7432 40.4424 13.125 40.4424Z" fill="#196164"/>
<path d="M33.75 28.2549H21.5625C21.0444 28.2549 20.625 27.8356 20.625 27.3174C20.625 26.7992 21.0444 26.3799 21.5625 26.3799H31.4869L30.2747 25.1678C29.4121 24.2982 30.7294 22.9782 31.6004 23.8421L34.4129 26.6546C35.0047 27.2077 34.5607 28.2826 33.75 28.2549Z" fill="#C4F500"/>
<path d="M24.375 34.8174C24.1352 34.8174 23.8953 34.7259 23.7122 34.5428L20.8997 31.7303C20.3084 31.1769 20.7515 30.1024 21.5626 30.1299H33.75C34.9782 30.1492 34.9859 31.9841 33.75 32.0049H23.8257L25.0379 33.2171C25.6358 33.774 25.1768 34.8458 24.375 34.8174Z" fill="#C4F500"/>
</g>
</g>
<defs>
<clipPath id="clip0_4058_229">
<rect width="60" height="60" fill="white" transform="translate(0 0.129883)"/>
</clipPath>
<clipPath id="clip1_4058_229">
<rect width="60" height="60" fill="white" transform="translate(0 0.129883)"/>
</clipPath>
</defs>
</svg>
