<svg width="60" height="61" viewBox="0 0 60 61" fill="none" xmlns="http://www.w3.org/2000/svg">
<g clip-path="url(#clip0_4058_196)">
<g clip-path="url(#clip1_4058_196)">
<path d="M26.25 38.3736C26.25 35.5258 28.5585 33.2173 31.4062 33.2173H43.5938C50.416 33.4516 50.4206 43.2941 43.5937 43.5298H31.4062C28.5585 43.5298 26.25 41.2213 26.25 38.3736Z" fill="#196164"/>
<path d="M43.5939 44.4673H31.4064C23.3366 44.1624 23.3325 32.5861 31.4064 32.2798H43.5939C51.6636 32.5847 51.6677 44.161 43.5939 44.4673ZM31.4064 34.1548C25.8344 34.3304 25.8293 42.4152 31.4065 42.5923H43.5939C49.1658 42.4167 49.1709 34.3319 43.5938 34.1548H31.4064Z" fill="#196164"/>
<path d="M51.5625 11.6548C51.5864 10.4233 53.4138 10.4234 53.4375 11.6548C53.4136 12.8863 51.5862 12.8861 51.5625 11.6548ZM47.8125 11.6548C47.8364 10.4233 49.6638 10.4234 49.6875 11.6548C49.6636 12.8863 47.8362 12.8861 47.8125 11.6548ZM44.0625 11.6548C44.0864 10.4233 45.9138 10.4234 45.9375 11.6548C45.9136 12.8863 44.0862 12.8861 44.0625 11.6548Z" fill="#196164"/>
<path d="M25.3124 15.4048H21.5624C17.8548 15.5016 17.8536 20.9329 21.5625 21.0298H25.3124C29.0199 20.933 29.0212 15.5017 25.3124 15.4048Z" fill="#196164"/>
<path d="M36.5624 15.4048H32.8124C29.1048 15.5016 29.1036 20.9329 32.8125 21.0298H36.5624C40.2699 20.933 40.2712 15.5017 36.5624 15.4048Z" fill="#196164"/>
<path d="M50.6248 15.4048H44.0623C40.3556 15.5013 40.3528 20.9328 44.0624 21.0298H50.6248C54.3316 20.9333 54.3343 15.5018 50.6248 15.4048Z" fill="#196164"/>
<path d="M34.6876 24.7798H19.6876C18.4599 24.7609 18.4515 22.9255 19.6876 22.9048H34.6876C35.9153 22.9237 35.9237 24.7591 34.6876 24.7798Z" fill="#196164"/>
<path d="M52.5 24.7798H38.4375C37.9193 24.7798 37.5 24.3605 37.5 23.8423C37.5 23.3241 37.9193 22.9048 38.4375 22.9048H52.5C53.728 22.9238 53.7358 24.7591 52.5 24.7798Z" fill="#196164"/>
<path d="M34.6876 28.5298H19.6876C18.4599 28.5109 18.4515 26.6755 19.6876 26.6548H34.6876C35.9153 26.6737 35.9237 28.5091 34.6876 28.5298Z" fill="#196164"/>
<path d="M52.5 28.5298H38.4375C37.9193 28.5298 37.5 28.1105 37.5 27.5923C37.5 27.0741 37.9193 26.6548 38.4375 26.6548H52.5C53.728 26.6738 53.7358 28.5091 52.5 28.5298Z" fill="#196164"/>
<path d="M25.3128 32.2798H19.6878C18.4571 32.2599 18.4542 30.4252 19.6878 30.4048H25.3128C26.5435 30.4247 26.5464 32.2594 25.3128 32.2798Z" fill="#196164"/>
<path d="M52.5 6.96729H7.5C4.3982 6.96729 1.875 9.49049 1.875 12.5923V42.5923C1.875 45.6941 4.3982 48.2173 7.5 48.2173H52.5C55.6018 48.2173 58.125 45.6941 58.125 42.5923V12.5923C58.125 9.49049 55.6018 6.96729 52.5 6.96729ZM13.125 35.0923H8.4375C7.20648 35.0724 7.20412 33.2377 8.43754 33.2173H13.125C14.356 33.2373 14.3584 35.0719 13.125 35.0923ZM13.125 31.3423H5.625C4.39485 31.3226 4.3909 29.4877 5.62504 29.4673H13.125C14.3552 29.487 14.3591 31.3219 13.125 31.3423ZM13.125 27.5923H5.625C4.39485 27.5726 4.3909 25.7377 5.62504 25.7173H13.125C14.3552 25.737 14.3591 27.5719 13.125 27.5923ZM9.375 23.8423C6.79046 23.8423 4.6875 21.7393 4.6875 19.1548C4.90781 12.9509 13.8431 12.9525 14.0625 19.1549C14.0625 21.7393 11.9595 23.8423 9.375 23.8423ZM56.25 42.5923C56.25 44.6605 54.5682 46.3423 52.5 46.3423H17.8125V8.84229H52.5C54.5682 8.84229 56.25 10.5241 56.25 12.5923V42.5923Z" fill="#196164"/>
<path d="M53.2706 48.761L51.2821 46.7716L52.9923 45.0614C54.5169 43.6366 53.7905 40.8586 51.7618 40.3647L39.881 37.0377C38.5305 36.6155 37.1453 37.9945 37.5703 39.3485L40.8973 51.2293C41.3919 53.2566 44.1684 53.9854 45.5939 52.4597L47.3041 50.7496L49.2936 52.7381C49.6589 53.1034 50.1395 53.2865 50.6192 53.2865C51.6309 53.3937 52.61 52.0053 53.2706 51.4124C54.0021 50.6818 54.0021 49.4916 53.2706 48.761Z" fill="#C4F500"/>
</g>
</g>
<defs>
<clipPath id="clip0_4058_196">
<rect width="60" height="60" fill="white" transform="translate(0 0.129883)"/>
</clipPath>
<clipPath id="clip1_4058_196">
<rect width="60" height="60" fill="white" transform="translate(0 0.129883)"/>
</clipPath>
</defs>
</svg>
