<svg width="31" height="30" viewBox="0 0 31 30" fill="none" xmlns="http://www.w3.org/2000/svg">
<g clip-path="url(#clip0_4188_809)">
<path d="M19.7266 13.9207C19.5873 13.4571 19.1685 13.1455 18.6843 13.1455H15.9252C15.8512 13.1455 15.785 13.0987 15.76 13.0296L14.8642 10.5256C14.5515 9.57491 13.1276 9.57403 12.815 10.5256L11.9192 13.0296C11.8942 13.0987 11.8279 13.1455 11.7539 13.1455H8.99473C7.93835 13.1223 7.49796 14.5787 8.39546 15.1426L10.5194 16.5433C10.5871 16.5883 10.6154 16.673 10.5883 16.7492L9.75257 19.0843C9.38117 20.04 10.5374 20.9466 11.3766 20.3591L13.7433 18.7976C13.8015 18.7592 13.877 18.7588 13.9361 18.798L16.3025 20.3592C17.1285 20.9514 18.307 20.0284 17.9265 19.0842L17.0909 16.7492C17.0637 16.673 17.092 16.5883 17.1595 16.5437L19.284 15.1421C19.6881 14.8756 19.8659 14.3843 19.7266 13.9207Z" fill="#C4F500"/>
<path d="M18.0117 25.6401C18.139 25.6878 18.2879 25.7091 18.4375 25.7138L18.0117 25.6401Z" fill="#196164"/>
<path d="M14.3743 25.1047C14.0697 24.5778 13.9886 23.9631 14.1461 23.3742C9.51579 23.5869 5.61204 19.7985 5.62337 15.1731C5.62336 10.6425 9.30931 6.95632 13.8401 6.95632C18.8473 6.90753 22.8261 11.592 21.9363 16.5219L22.4727 16.2122C22.6123 14.9464 23.9179 14.1167 25.0679 13.8388C24.877 13.576 24.6262 13.3483 24.3152 13.1755C23.6942 12.8477 23.4676 11.9982 23.8409 11.4043C24.7473 9.97061 23.5976 8.02146 21.8822 8.09136C21.1935 8.11853 20.5538 7.4957 20.5859 6.79493C20.658 5.11048 18.6713 3.96732 17.2336 4.90486C16.6392 5.2787 15.7902 5.05028 15.4625 4.43048C14.6831 2.93494 12.3897 2.93896 11.6145 4.46978C11.287 5.09068 10.4367 5.31769 9.84315 4.94402C8.44565 4.03769 6.44277 5.19317 6.52945 6.85651C6.58271 7.57898 5.95126 8.21684 5.23372 8.19872C3.54044 8.12335 2.40094 10.1512 3.34338 11.5514C3.71766 12.1457 3.48954 12.9947 2.86905 13.3226C1.37305 14.1028 1.37839 16.3944 2.90836 17.1706C3.52882 17.4982 3.75653 18.3477 3.3826 18.9417C2.47388 20.3417 3.6355 22.3331 5.29286 22.2552C6.01367 22.2118 6.66552 22.8267 6.63773 23.5511C6.55093 25.2119 8.55301 26.3717 9.94861 25.4657C10.545 25.0618 11.4251 25.2777 11.7612 25.9156C12.4904 27.3283 14.6362 27.424 15.4881 26.0661C15.0221 25.8756 14.6298 25.5476 14.3743 25.1047Z" fill="#196164"/>
<path d="M28.9113 19.2422L26.7202 15.4472C26.3414 14.7592 25.3972 14.5057 24.7246 14.9122L24.0921 15.2774C23.5626 15.5829 23.2988 16.1725 23.3776 16.744L17.3536 20.222C17.261 20.2755 17.1902 20.3597 17.1534 20.46L16.4706 22.3166C16.4571 22.3212 15.6665 22.7777 15.6665 22.7777C14.1263 23.7288 15.4416 26.0079 17.0359 25.1497L17.8266 24.6932C17.8374 24.6836 19.7865 25.0209 19.7865 25.0209C19.8912 25.0391 19.9999 25.0198 20.0925 24.9665L24.8364 22.2276L25.2928 23.018L23.3164 24.1592C22.8009 24.4689 23.2503 25.2413 23.7729 24.95L26.1447 23.5806C26.3631 23.4544 26.4378 23.1753 26.3118 22.9569L25.6271 21.7711L26.1153 21.4893C26.5702 21.8517 27.2393 21.9022 27.744 21.6031L28.3768 21.2375C29.0737 20.8345 29.3135 19.9394 28.9113 19.2422ZM19.7791 24.0932L17.8107 23.7526L17.2635 22.8049L17.9531 20.93L23.7398 17.5892C23.8998 17.8662 25.3663 20.4064 25.5658 20.752L19.7791 24.0932Z" fill="#196164"/>
</g>
<defs>
<clipPath id="clip0_4188_809">
<rect width="29.215" height="29.215" fill="white" transform="translate(0.822266 0.565918)"/>
</clipPath>
</defs>
</svg>
