<svg width="30" height="30" viewBox="0 0 30 30" fill="none" xmlns="http://www.w3.org/2000/svg">
<g clip-path="url(#clip0_4188_881)">
<path d="M17.0973 10.4803C17.5844 10.4803 17.9975 10.5941 18.3405 10.7845V7.01649C18.3405 6.51225 17.9318 6.10352 17.4275 6.10352H16.5145C16.0103 6.10352 15.6016 6.51225 15.6016 7.01649V10.9462C15.9864 10.6579 16.4847 10.4803 17.0973 10.4803Z" fill="#196164"/>
<path d="M13.339 11.9373C13.4926 11.9373 13.6367 11.9518 13.776 11.973V9.29896C13.776 8.79478 13.3673 8.38599 12.863 8.38599H11.9501C11.4458 8.38599 11.0371 8.79478 11.0371 9.29896V13.4073C11.0371 13.4381 11.0432 13.4673 11.0462 13.4972C11.3686 12.626 12.1319 11.9373 13.339 11.9373Z" fill="#196164"/>
<path d="M24.7315 1.53882H8.29802C7.06438 1.53882 6.0208 2.3594 5.67913 3.48278C4.55444 3.8237 3.73317 4.86909 3.73317 6.10366V9.29903H3.27668C2.52152 9.29903 1.90723 9.91335 1.90723 10.6685C1.90723 11.4237 2.52152 12.0379 3.27668 12.0379H3.73317V17.8658H3.27668C2.52152 17.8658 1.90723 18.48 1.90723 19.2352C1.90723 19.9903 2.52152 20.6047 3.27668 20.6047H3.73317V24.363C3.73317 25.8734 4.96175 27.1019 6.47207 27.1019H16.9712C15.5731 27.1019 14.2274 26.7802 13.0049 26.189H6.47207C5.46526 26.189 4.64613 25.3701 4.64613 24.363V21.7998L5.40307 22.1783C6.27075 22.6474 7.4171 21.9408 7.38502 20.9532L7.38504 17.5171C7.41651 16.5304 6.27214 15.8222 5.40306 16.2922L4.64613 16.6706V13.2331L5.40307 13.6116C6.27075 14.0807 7.4171 13.3742 7.38502 12.3866L7.38504 8.95043C7.41651 7.96376 6.27214 7.25547 5.40306 7.72547L4.64613 8.10392V6.10366C4.64613 5.09664 5.46526 4.27773 6.47207 4.27773H22.9055C23.9123 4.27773 24.7315 5.09664 24.7315 6.10366V13.1634C26.33 15.7437 26.5502 18.9901 25.2524 21.7953C25.7231 22.0755 27.0231 22.7174 27.4089 23.0849C27.4453 22.9072 27.4704 22.7255 27.4704 22.5371V4.27773C27.4704 2.7674 26.2418 1.53882 24.7315 1.53882ZM3.27668 11.125C2.67669 11.1143 2.67693 10.2226 3.2767 10.212H3.73317V11.125H3.27668ZM3.27668 19.6917C2.67669 19.681 2.67693 18.7892 3.2767 18.7787H3.73317V19.6917H3.27668Z" fill="#196164"/>
<path d="M20.7958 26.2566C19.5986 26.8116 18.2929 27.1018 16.9707 27.1018H21.2652L20.7958 26.2566Z" fill="#196164"/>
<path d="M27.7891 25.5537C27.6632 24.6545 27.1359 23.886 26.3424 23.4455L24.0293 22.1604C27.2657 16.838 23.3238 9.69374 16.9707 9.75553C9.70876 9.7258 6.01091 18.6564 11.1608 23.7822C13.7106 26.422 18.0534 26.9503 21.1605 25.033L22.4439 27.3435C23.9798 30.0908 28.2163 28.6758 27.7891 25.5537ZM21.167 22.1683C18.9583 24.4703 14.9833 24.4707 12.7747 22.1683C9.05229 18.4935 11.7428 11.9939 16.971 12.0379C22.1989 11.9944 24.8898 18.4937 21.167 22.1683Z" fill="#C4F500"/>
</g>
<defs>
<clipPath id="clip0_4188_881">
<rect width="29.215" height="29.215" fill="white" transform="translate(0.255859 0.565918)"/>
</clipPath>
</defs>
</svg>
