<svg width="30" height="30" viewBox="0 0 30 30" fill="none" xmlns="http://www.w3.org/2000/svg">
<path d="M19.0159 6.27202C18.5679 6.28915 18.3825 5.63528 18.7873 5.42012L19.973 4.7354C20.4963 4.44391 20.945 5.21708 20.4295 5.52623C20.2717 5.59202 19.1797 6.31571 19.0159 6.27202Z" fill="#196164"/>
<path d="M19.0159 6.27202C18.5679 6.28915 18.3825 5.63528 18.7873 5.42012L19.973 4.7354C20.4963 4.44391 20.945 5.21708 20.4295 5.52623C20.2717 5.59202 19.1797 6.31571 19.0159 6.27202Z" fill="#196164"/>
<path d="M20.8162 16.8105L15.0313 15.1908C14.6885 15.0948 14.3726 15.4106 14.4686 15.7535L16.0884 21.5383C16.2767 22.2107 17.1194 22.4315 17.6131 21.9377L18.7688 20.7821L20.0599 22.0732C20.2381 22.2515 20.5272 22.2515 20.7054 22.0732L21.351 21.4276C21.5293 21.2494 21.5293 20.9603 21.351 20.7821L20.0599 19.4909L21.2155 18.3353C21.7093 17.8415 21.4885 16.9988 20.8162 16.8105Z" fill="#196164"/>
<path d="M20.3828 22.663C20.1491 22.663 19.9151 22.5738 19.7373 22.396L18.7686 21.4277L17.9358 22.2605C17.2419 23.0024 15.8894 22.6493 15.649 21.6613L14.0289 15.8764C13.8233 15.2179 14.4951 14.5451 15.1542 14.7512L20.9391 16.3712C21.926 16.612 22.2815 17.9641 21.5382 18.6581L20.7055 19.4908L21.6737 20.4595C22.0299 20.8152 22.0299 21.3948 21.6737 21.7505C21.3515 22.0395 20.8761 22.7149 20.3828 22.663ZM18.7686 20.3257C18.8854 20.3257 19.0021 20.3704 19.0913 20.4595L20.3828 21.7505L21.0282 21.105L19.7373 19.8135C19.5589 19.6352 19.5589 19.3464 19.7373 19.1681L20.8927 18.0126C21.0599 17.8454 21.0318 17.6501 21.0118 17.5739C20.9917 17.4977 20.9208 17.314 20.693 17.2503L14.908 15.6303L16.5281 21.4152C16.5918 21.643 16.7754 21.714 16.8517 21.734C16.9283 21.7545 17.1232 21.7826 17.2904 21.615L18.4458 20.4595C18.535 20.3704 18.6518 20.3257 18.7686 20.3257Z" fill="#196164"/>
<path d="M14.9077 6.04365C14.6553 6.04365 14.4512 5.83948 14.4512 5.58717V4.21772C14.4512 3.9654 14.6553 3.76123 14.9077 3.76123C15.16 3.76123 15.3641 3.9654 15.3641 4.21772V5.58717C15.3641 5.83948 15.16 6.04365 14.9077 6.04365Z" fill="#196164"/>
<path d="M11.7118 6.27184C11.5537 6.31822 10.4501 5.5887 10.2981 5.52607C9.78345 5.21738 10.2301 4.44343 10.7546 4.73523L11.9405 5.41995C12.3447 5.63494 12.1603 6.28923 11.7118 6.27184Z" fill="#196164"/>
<path d="M26.7761 22.9336H25.6164C26.052 22.4484 26.3196 21.8095 26.3196 21.1076V8.32607C26.3196 6.81574 25.091 5.58716 23.5807 5.58716H21.4862C21.354 6.02451 20.959 6.30179 20.5685 6.50013H23.5807C24.5877 6.50013 25.4066 7.31904 25.4066 8.32607V21.1076C25.4066 22.1147 24.5877 22.9336 23.5807 22.9336H6.23426C5.22723 22.9336 4.40832 22.1147 4.40832 21.1076V8.32607C4.40832 7.31904 5.22723 6.50013 6.23426 6.50013H10.1591C9.76802 6.30202 9.37412 6.02427 9.24178 5.58716H6.23426C4.72394 5.58716 3.49535 6.81574 3.49535 8.32607V21.1076C3.49535 21.8095 3.76293 22.4484 4.19855 22.9336H3.03887C0.631567 23.0075 0.621159 26.508 3.03891 26.5855H26.7761C29.181 26.5126 29.1959 23.0117 26.7761 22.9336ZM26.7761 25.6725H17.7986C17.5392 25.2754 17.2555 24.731 16.7013 24.7595H13.1136C12.5562 24.7329 12.2771 25.2742 12.0164 25.6725H3.03887C1.8419 25.6433 1.82948 23.8793 3.0389 23.8465H26.7761C27.9712 23.875 27.987 25.6395 26.7761 25.6725Z" fill="#196164"/>
<path d="M11.7118 6.27184C11.5537 6.31822 10.4501 5.5887 10.2981 5.52607C9.78345 5.21738 10.2301 4.44343 10.7546 4.73523L11.9405 5.41995C12.3447 5.63494 12.1603 6.28923 11.7118 6.27184Z" fill="#196164"/>
<path d="M20.8419 7.62036H19.4724C18.8728 7.63016 18.8721 8.52348 19.4725 8.53334H20.8419C21.4416 8.52355 21.4423 7.63025 20.8419 7.62036Z" fill="#196164"/>
<path d="M20.4298 10.6278L19.2439 9.94312C18.72 9.65097 18.2723 10.4252 18.7875 10.734C18.9452 10.7998 20.0373 11.5234 20.2011 11.4798C20.6492 11.4968 20.8346 10.843 20.4298 10.6278Z" fill="#196164"/>
<path d="M14.6791 6.04358H16.7332C17.3318 6.03505 17.3341 5.13996 16.7332 5.13062H14.6791C12.5675 5.19817 12.568 8.25889 14.6791 8.32601H15.592C15.9696 8.32601 16.2767 8.63313 16.2767 9.01073C16.2767 9.38834 15.9696 9.69546 15.592 9.69546H13.5378C12.9385 9.70488 12.9373 10.5986 13.5378 10.6084H14.4508V11.5214C14.4508 11.7737 14.6549 11.9779 14.9073 11.9779C15.1596 11.9779 15.3638 11.7737 15.3638 11.5214V10.6084C17.6228 10.7786 17.8501 7.52415 15.5919 7.41302L14.6791 7.41304C13.7799 7.3978 13.7789 6.05916 14.6791 6.04358Z" fill="#196164"/>
<path d="M11.7121 8.07685C11.7121 7.82454 11.508 7.62036 11.2556 7.62036H9.88617C9.63383 7.62036 9.42969 7.82454 9.42969 8.07685C9.42969 8.32912 9.63383 8.53334 9.88617 8.53334H11.2556C11.508 8.53334 11.7121 8.32912 11.7121 8.07685Z" fill="#196164"/>
<path d="M23.1242 7.41309H22.0321C22.5585 8.28092 21.8605 9.47391 20.8418 9.44631H20.2093L20.8863 9.83728C22.0893 10.5226 21.5832 12.4019 20.2012 12.3929C19.6889 12.4421 18.7671 11.7387 18.3311 11.525C17.9382 11.3012 17.68 10.8856 17.6502 10.4355C17.3225 10.9073 16.8428 11.266 16.2769 11.4265C16.3264 13.2993 13.6093 13.3914 13.538 11.5214C13.2336 11.5214 12.9549 11.4182 12.7272 11.2496C12.5511 11.5005 11.4726 12.0374 11.211 12.2098C11.0032 12.3297 10.7666 12.3929 10.5267 12.3929C9.14532 12.4021 8.63814 10.5223 9.84158 9.83771L10.5189 9.44631H9.88614C8.86741 9.47406 8.16924 8.2807 8.69577 7.41309H6.69074C5.93558 7.41309 5.32129 8.0274 5.32129 8.78254V20.6511C5.32129 21.4063 5.93558 22.0206 6.69074 22.0206H23.1242C23.8793 22.0206 24.4936 21.4063 24.4936 20.6511V8.78254C24.4936 8.0274 23.8793 7.41309 23.1242 7.41309ZM17.8746 19.2817H11.9403C8.01104 19.1332 8.009 13.4965 11.9403 13.3474H17.8746C21.8039 13.4959 21.8059 19.1325 17.8746 19.2817Z" fill="#196164"/>
<path d="M11.484 9.94366L10.2982 10.6284C9.78236 10.9384 10.2324 11.7104 10.7547 11.4192L11.9405 10.7345C12.4556 10.426 12.0075 9.65129 11.484 9.94366Z" fill="#196164"/>
<path d="M21.6739 20.4595L20.7057 19.4908L21.5384 18.6581C22.2808 17.9643 21.9271 16.6117 20.9392 16.3712L15.1544 14.7512C14.4963 14.5462 13.8225 15.2169 14.0292 15.8764L15.6491 21.6613C15.89 22.6484 17.2419 23.0033 17.9361 22.2605L18.7688 21.4278L19.7375 22.396C19.9153 22.5739 20.1493 22.6631 20.383 22.6631C20.8755 22.7152 21.3523 22.0392 21.674 21.7505C22.0301 21.3948 22.0301 20.8152 21.6739 20.4595Z" fill="#C4F500"/>
</svg>
