<svg width="30" height="30" viewBox="0 0 30 30" fill="none" xmlns="http://www.w3.org/2000/svg">
<g clip-path="url(#clip0_4188_855)">
<g clip-path="url(#clip1_4188_855)">
<path d="M22.4418 6.61568C22.1898 6.61568 21.9854 6.41151 21.9854 6.15919V4.78974C21.9854 4.53742 22.1898 4.33325 22.4418 4.33325C22.694 4.33325 22.8983 4.53742 22.8983 4.78974V6.15919C22.8983 6.41151 22.694 6.61568 22.4418 6.61568Z" fill="#196164"/>
<path d="M20.1808 7.07172C20.0231 7.07172 19.8697 6.99015 19.785 6.84348L19.1002 5.65769C18.9743 5.43925 19.049 5.16019 19.2674 5.03403C19.4854 4.90788 19.7644 4.98232 19.8911 5.2012L20.5758 6.387C20.7557 6.67961 20.5209 7.08045 20.1808 7.07172Z" fill="#196164"/>
<path d="M20.1808 7.07172C20.0231 7.07172 19.8697 6.99015 19.785 6.84348L19.1002 5.65769C18.9743 5.43925 19.049 5.16019 19.2674 5.03403C19.4854 4.90788 19.7644 4.98232 19.8911 5.2012L20.5758 6.387C20.7557 6.67961 20.5209 7.08045 20.1808 7.07172Z" fill="#196164"/>
<path d="M24.7032 7.0719C24.3633 7.08036 24.1282 6.67999 24.3083 6.38717L24.993 5.20138C25.3013 4.68644 26.0751 5.13313 25.7838 5.65788L25.0991 6.84366C25.0144 6.99032 24.8611 7.0719 24.7032 7.0719Z" fill="#196164"/>
<path d="M13.7893 19.8538H12.8763C11.9769 19.8376 11.9761 18.5004 12.8763 18.4843H14.9305C15.5297 18.4748 15.531 17.5812 14.9305 17.5714H13.561V16.6584C13.561 16.406 13.3566 16.2019 13.1045 16.2019C12.8524 16.2019 12.648 16.406 12.648 16.6584V17.5944C10.7125 17.9046 10.9079 20.7291 12.8763 20.7668H13.7893C14.1668 20.7668 14.474 21.0739 14.474 21.4515C14.474 21.829 14.1668 22.1362 13.7893 22.1362H11.7351C11.1357 22.1455 11.1346 23.0395 11.7351 23.0492H12.648V23.9621C12.648 24.2144 12.8524 24.4186 13.1045 24.4186C13.3566 24.4186 13.561 24.2144 13.561 23.9621V23.0492C15.8203 23.2195 16.047 19.9645 13.7893 19.8538Z" fill="#196164"/>
<path d="M17.0858 12.9759C19.1225 12.8149 19.0278 10.0837 16.9845 10.0393H9.2243C7.18497 10.0826 7.0826 12.814 9.12307 12.9759C1.60197 17.9265 1.81546 29.0483 13.1044 28.9833C24.3946 29.0484 24.6056 17.9246 17.0858 12.9759ZM13.1044 28.1474C11.9201 28.1474 10.7138 27.9968 9.60081 27.6687C10.985 25.905 10.3596 23.0942 8.5395 22.1361C7.98247 21.7439 6.10517 21.6756 4.89375 21.6523C5.00254 18.1439 7.63873 14.1073 11.18 12.9853H15.0288C18.6457 14.1312 21.3211 18.3184 21.3211 21.8769C21.3211 26.5001 17.0766 28.1474 13.1044 28.1474Z" fill="#196164"/>
<path d="M9.22427 9.56159H16.9845C18.8177 9.54049 19.1799 6.98656 17.439 6.46072C18.3106 5.41939 18.3139 3.72392 17.385 2.82369C16.6165 2.01248 15.0346 1.97337 14.32 2.86518C13.2186 0.607984 10.0604 0.994859 9.40007 3.36009C8.00756 3.65415 7.86979 5.45956 8.65414 6.49644C7.0225 7.12182 7.45902 9.54786 9.22427 9.56159ZM9.21003 4.51412C9.35552 4.29234 9.67184 4.15113 9.90388 4.27784C11.5268 5.29023 13.8147 4.92513 15.0043 3.46518C15.1744 3.2561 15.443 3.13263 15.7611 3.11613C17.5746 3.1012 17.5258 5.5579 16.2221 6.38731H9.69434C9.27598 5.90077 8.85703 5.07064 9.21003 4.51412Z" fill="#196164"/>
<path d="M24.9736 7.98486H15.3875C14.3806 7.98486 13.5615 8.80376 13.5615 9.8108V15.2886C13.5615 16.2957 14.3806 17.1146 15.3875 17.1146H17.1882C17.1155 17.4534 16.9034 17.7422 16.6383 17.8135C16.4569 17.8626 16.3238 18.0177 16.3031 18.2045C16.2826 18.3913 16.3787 18.5719 16.5454 18.6588C17.9357 19.414 19.7025 18.6007 20.2006 17.1146H24.9736C25.9804 17.1146 26.7996 16.2957 26.7996 15.2886V9.8108C26.7996 8.80376 25.9805 7.98486 24.9736 7.98486Z" fill="#C4F500"/>
<path d="M23.6036 11.1803H16.7563C16.5042 11.1803 16.2998 10.9762 16.2998 10.7238C16.2998 10.4715 16.5042 10.2673 16.7563 10.2673H23.6036C24.2014 10.2768 24.2052 11.1702 23.6036 11.1803Z" fill="#196164"/>
<path d="M23.6036 13.0062H16.7563C16.5042 13.0062 16.2998 12.8021 16.2998 12.5497C16.2998 12.2975 16.5042 12.0933 16.7563 12.0933H23.6036C24.2014 12.1027 24.2052 12.9961 23.6036 13.0062Z" fill="#196164"/>
<path d="M23.6042 14.8322H19.4958C18.897 14.8225 18.8948 13.9293 19.4958 13.9192H23.6042C24.2029 13.9288 24.2051 14.8221 23.6042 14.8322Z" fill="#196164"/>
</g>
</g>
<defs>
<clipPath id="clip0_4188_855">
<rect width="29.215" height="29.215" fill="white" transform="translate(0.77832 0.565918)"/>
</clipPath>
<clipPath id="clip1_4188_855">
<rect width="29.215" height="29.215" fill="white" transform="translate(0.77832 0.565918)"/>
</clipPath>
</defs>
</svg>
