<svg width="21" height="22" viewBox="0 0 21 22" fill="none" xmlns="http://www.w3.org/2000/svg">
<g clip-path="url(#clip0_4188_771)">
<path d="M15.6855 11.807C15.5712 12.9149 15.0803 13.95 14.2949 14.7394C13.5093 15.529 12.4768 16.0251 11.3695 16.1449C11.3472 16.1447 11.3251 16.1489 11.3044 16.1573C11.2838 16.1657 11.265 16.1782 11.2493 16.1939C11.2335 16.2097 11.221 16.2284 11.2126 16.2491C11.2042 16.2697 11.2 16.2918 11.2003 16.3141V19.9354C11.2003 20.0252 11.1646 20.1113 11.1011 20.1748C11.0377 20.2382 10.9516 20.2738 10.8618 20.2738C10.7721 20.2738 10.686 20.2382 10.6225 20.1748C10.5591 20.1113 10.5234 20.0252 10.5234 19.9354V18.6215C10.5202 18.5777 10.5013 18.5364 10.4703 18.5054C10.4392 18.4743 10.398 18.4555 10.3542 18.4522C8.84899 18.3305 7.42124 17.7343 6.27646 16.7493C5.13168 15.7645 4.32891 14.4418 3.98369 12.9716C3.97084 12.9281 3.96689 12.8824 3.97206 12.8372C3.97725 12.7921 3.99145 12.7485 4.01385 12.709C4.03624 12.6695 4.06635 12.635 4.10239 12.6073C4.13843 12.5796 4.17966 12.5596 4.22364 12.5482C4.2676 12.5368 4.31341 12.5344 4.35832 12.5412C4.40324 12.5479 4.44635 12.5636 4.48507 12.5873C4.5238 12.611 4.55735 12.6423 4.58374 12.6793C4.61012 12.7162 4.6288 12.7581 4.63866 12.8024C4.94557 14.1221 5.66121 15.3111 6.68357 16.2002C7.70594 17.0891 8.98285 17.6328 10.3323 17.7535C10.3761 17.7754 10.4179 17.7535 10.4597 17.7117C10.4818 17.6992 10.4997 17.6804 10.511 17.6577C10.5224 17.635 10.5267 17.6094 10.5234 17.5843V16.3141C10.5237 16.2918 10.5195 16.2697 10.5111 16.2491C10.5027 16.2284 10.4902 16.2097 10.4744 16.1939C10.4587 16.1782 10.4399 16.1657 10.4193 16.1573C10.3986 16.1489 10.3765 16.1447 10.3542 16.1449C9.25224 16.0222 8.22395 15.5312 7.43571 14.7514C6.64763 13.9593 6.15564 12.9205 6.04216 11.809C6.0357 11.7684 6.01527 11.7312 5.9844 11.704C5.95351 11.6767 5.9141 11.6611 5.87294 11.6597H2.25171C2.15931 11.6597 2.0707 11.6231 2.00536 11.5577C1.94002 11.4924 1.90332 11.4038 1.90332 11.3113C1.90332 11.2189 1.94002 11.1303 2.00536 11.065C2.0707 10.9996 2.15931 10.9629 2.25171 10.9629H3.62734C3.66839 10.9612 3.7076 10.9455 3.7384 10.9183C3.76921 10.8911 3.78975 10.8541 3.79656 10.8136C3.88689 9.31068 4.44532 7.87366 5.39355 6.70409C6.34179 5.5345 7.63227 4.691 9.08408 4.29183C9.172 4.27515 9.26297 4.29273 9.33833 4.34098C9.4137 4.38923 9.46775 4.4645 9.48939 4.55132C9.51104 4.63815 9.49864 4.72998 9.45473 4.80796C9.41083 4.88593 9.33876 4.94416 9.25329 4.97069C7.95444 5.32094 6.79736 6.06804 5.94366 7.1077C5.08995 8.14736 4.58221 9.42767 4.49134 10.7698C4.48572 10.7946 4.48594 10.8203 4.492 10.8449C4.49804 10.8695 4.50972 10.8924 4.52615 10.9117C4.54257 10.9311 4.56327 10.9463 4.5866 10.9561C4.60993 10.9661 4.63525 10.9705 4.66056 10.9689H5.86498C5.90614 10.9676 5.94556 10.952 5.97643 10.9247C6.00731 10.8974 6.02774 10.8603 6.0342 10.8196C6.14692 9.70975 6.63762 8.67234 7.42409 7.88116C8.21056 7.08998 9.24503 6.59309 10.3542 6.47373C10.3765 6.474 10.3986 6.46981 10.4193 6.4614C10.4399 6.45299 10.4587 6.44054 10.4744 6.42477C10.4902 6.409 10.5027 6.39024 10.5111 6.36959C10.5195 6.34894 10.5237 6.32681 10.5234 6.30452V2.68328C10.5234 2.59353 10.5591 2.50745 10.6225 2.44397C10.686 2.3805 10.7721 2.34485 10.8618 2.34485C10.9516 2.34485 11.0377 2.3805 11.1011 2.44397C11.1646 2.50745 11.2003 2.59353 11.2003 2.68328V6.79027C11.2026 6.83819 11.1948 6.88605 11.1775 6.93081C11.1602 6.97555 11.1337 7.01619 11.0997 7.05012C11.0659 7.08404 11.0252 7.1105 10.9805 7.12781C10.9357 7.14511 10.8878 7.15287 10.8399 7.1506C7.15899 7.1506 5.3195 11.6577 7.92146 14.2616C10.5234 16.8656 14.9649 15.0022 15.0286 11.3093C15.0281 11.2647 15.0364 11.2205 15.0532 11.1792C15.0701 11.1379 15.0949 11.1004 15.1265 11.0688C15.1581 11.0373 15.1956 11.0124 15.2369 10.9956C15.2781 10.9787 15.3224 10.9704 15.367 10.9709H19.472C19.5644 10.9709 19.653 11.0076 19.7183 11.073C19.7836 11.1383 19.8204 11.2269 19.8204 11.3193C19.8204 11.4117 19.7836 11.5003 19.7183 11.5656C19.653 11.631 19.5644 11.6676 19.472 11.6676H18.1183C18.0762 11.666 18.0352 11.6806 18.0037 11.7084C17.9721 11.7362 17.9526 11.7752 17.949 11.817C17.8391 13.3294 17.2543 14.7683 16.2779 15.9284C15.3015 17.0886 13.9836 17.9105 12.5122 18.277C12.0683 18.3826 11.915 17.7057 12.3629 17.6002C13.6769 17.2735 14.8553 16.5428 15.7321 15.5111C16.6088 14.4792 17.1399 13.1984 17.2503 11.8488C17.2558 11.8241 17.2556 11.7984 17.2496 11.7738C17.2436 11.7492 17.2319 11.7263 17.2154 11.707C17.199 11.6877 17.1783 11.6724 17.155 11.6625C17.1317 11.6526 17.1063 11.6482 17.0811 11.6497H15.8547C15.8135 11.6511 15.7742 11.6668 15.7432 11.694C15.7124 11.7212 15.692 11.7584 15.6855 11.799V11.807ZM18.4268 6.17711L15.9802 8.60984C15.9203 8.67473 15.8374 8.71337 15.7492 8.71735H14.1188C14.0743 8.72125 14.0313 8.73557 13.9933 8.75915L11.0948 11.6796C11.0296 11.7405 10.9434 11.7738 10.8542 11.7724C10.765 11.7709 10.6798 11.7349 10.6166 11.672C10.5534 11.609 10.5171 11.524 10.5153 11.4349C10.5135 11.3457 10.5464 11.2593 10.607 11.1938L13.5056 8.27141C13.5251 8.26164 13.5414 8.24654 13.5527 8.22786C13.564 8.20919 13.5697 8.18771 13.5693 8.1659V6.53147C13.5689 6.48438 13.5781 6.4377 13.5962 6.39424C13.6143 6.35079 13.6411 6.31146 13.6748 6.27864L16.1076 3.84789C16.1545 3.79711 16.2158 3.76164 16.2831 3.74612C16.3505 3.7306 16.4211 3.73575 16.4855 3.76088C16.55 3.78603 16.6054 3.82998 16.6445 3.88705C16.6836 3.94411 16.7046 4.01163 16.7048 4.08081V5.41464C16.7076 5.45859 16.7263 5.50002 16.7575 5.53117C16.7886 5.56231 16.83 5.58104 16.874 5.58385H18.1859C18.2559 5.58202 18.3248 5.6013 18.3837 5.63921C18.4426 5.6771 18.4886 5.73185 18.5159 5.79631C18.5432 5.86077 18.5505 5.93195 18.5366 6.00059C18.5229 6.06923 18.4888 6.13212 18.4388 6.18109L18.4268 6.17711ZM15.6397 7.96881L17.0572 6.55137C17.0818 6.52862 17.0992 6.49914 17.1072 6.46659C17.1152 6.43403 17.1135 6.39984 17.1023 6.36824C17.091 6.33666 17.0708 6.30906 17.044 6.28888C17.0172 6.2687 16.9851 6.25684 16.9517 6.25475H16.3544C16.2619 6.25691 16.1724 6.22264 16.105 6.15932C16.0376 6.096 15.9977 6.00873 15.9941 5.91631V5.337C15.9939 5.30271 15.9837 5.26923 15.9647 5.24069C15.9457 5.21216 15.9187 5.18984 15.8871 5.17649C15.8555 5.16313 15.8208 5.15934 15.787 5.16558C15.7533 5.17182 15.7221 5.18781 15.6975 5.21158L14.3039 6.62901C14.2667 6.66142 14.2438 6.70722 14.2402 6.75642V7.85733C14.2399 7.87962 14.2441 7.90175 14.2525 7.9224C14.2609 7.94305 14.2735 7.96181 14.2892 7.97758C14.3049 7.99335 14.3237 8.0058 14.3443 8.01421C14.365 8.02261 14.3871 8.02681 14.4094 8.02654H15.5302C15.574 8.02654 15.6158 8.02654 15.6357 7.98275L15.6397 7.96881ZM13.7365 11.3133C13.7373 11.8826 13.5692 12.4392 13.2536 12.9128C12.9378 13.3865 12.4887 13.7558 11.963 13.9741C11.4373 14.1924 10.8587 14.2498 10.3004 14.1391C9.74202 14.0283 9.22907 13.7545 8.82644 13.3521C8.42381 12.9498 8.14959 12.437 8.0385 11.8788C7.9274 11.3206 7.98443 10.7418 8.20234 10.216C8.42026 9.69015 8.78928 9.24077 9.26269 8.92475C9.73611 8.60872 10.2926 8.44024 10.8618 8.44063C10.9473 8.44719 11.0273 8.48579 11.0856 8.54872C11.1438 8.61166 11.1763 8.69427 11.1763 8.78006C11.1763 8.86584 11.1438 8.94846 11.0856 9.0114C11.0273 9.07432 10.9473 9.11293 10.8618 9.11948C10.2811 9.11948 9.72406 9.35021 9.31339 9.76089C8.90271 10.1716 8.67198 10.7286 8.67198 11.3093C8.67198 11.8901 8.90271 12.4471 9.31339 12.8578C9.72406 13.2685 10.2811 13.4992 10.8618 13.4992C12.132 13.4992 12.978 12.5476 13.0398 11.3093C13.0378 11.2613 13.0457 11.2134 13.0631 11.1686C13.0804 11.1237 13.1068 11.083 13.1405 11.0487C13.1742 11.0145 13.2148 10.9876 13.2593 10.9697C13.3039 10.9518 13.3517 10.9433 13.3998 10.9446C13.4479 10.946 13.4952 10.9572 13.5387 10.9776C13.5822 10.998 13.6211 11.0272 13.6528 11.0633C13.6846 11.0994 13.7086 11.1416 13.7233 11.1874C13.738 11.2332 13.7432 11.2814 13.7385 11.3292L13.7365 11.3133Z" fill="#196164"/>
</g>
<defs>
<clipPath id="clip0_4188_771">
<rect width="19.9078" height="20.9032" fill="white" transform="translate(0.908203 0.857544)"/>
</clipPath>
</defs>
</svg>
